<?xml version="1.0" encoding="UTF-8" standalone="no"?>
<svg
   width="640.64948"
   height="797.07983"
   version="1.1"
   xml:space="preserve"
   style="clip-rule:evenodd;fill-rule:evenodd;stroke-linejoin:round;stroke-miterlimit:2"
   id="svg16"
   sodipodi:docname="tapHint_multi.svg"
   xmlns:inkscape="http://www.inkscape.org/namespaces/inkscape"
   xmlns:sodipodi="http://sodipodi.sourceforge.net/DTD/sodipodi-0.dtd"
   xmlns="http://www.w3.org/2000/svg"
   xmlns:svg="http://www.w3.org/2000/svg"><defs
   id="defs16" /><sodipodi:namedview
   id="namedview16"
   pagecolor="#ffffff"
   bordercolor="#000000"
   borderopacity="0.25"
   inkscape:showpageshadow="2"
   inkscape:pageopacity="0.0"
   inkscape:pagecheckerboard="0"
   inkscape:deskcolor="#d1d1d1"><inkscape:page
     x="0"
     y="0"
     width="640.64948"
     height="797.07983"
     id="page2"
     margin="0"
     bleed="0" /></sodipodi:namedview>
    <g
   id="g7"
   transform="translate(-128.42375,-2.9181635)">
        <path
   d="m 213.287,193.918 c 6.956,0 13.917,-2.655 19.223,-7.962 10.619,-10.619 10.619,-27.831 0,-38.45 L 174.838,89.831 c -10.614,-10.619 -27.83,-10.619 -38.45,0 -10.619,10.619 -10.619,27.831 0,38.45 l 57.672,57.673 c 5.311,5.308 12.269,7.964 19.227,7.964 z"
   style="fill:#3d6deb;fill-rule:nonzero"
   id="path1" />
        <path
   d="m 282.379,153.601 c 3.467,0 6.991,-0.667 10.394,-2.077 13.872,-5.745 20.461,-21.65 14.714,-35.522 L 276.334,40.791 C 270.589,26.918 254.681,20.33 240.809,26.077 c -13.872,5.745 -20.461,21.65 -14.714,35.522 l 31.155,75.211 c 4.336,10.47 14.459,16.791 25.13,16.791 z"
   style="fill:#3d6deb;fill-rule:nonzero"
   id="path2" />
        <path
   d="m 343.535,16.675 c -14.85,2.251 -25.06,16.108 -22.811,30.955 l 12.196,80.49 c 2.25,14.845 16.108,25.057 30.955,22.81 3.644,-0.552 7.004,-1.803 9.973,-3.594 9.134,-5.514 14.534,-16.156 12.837,-27.36 L 374.489,39.486 C 372.24,24.637 358.383,14.426 343.536,16.675 Z"
   style="fill:#3d6deb;fill-rule:nonzero"
   id="path3" />
        <path
   d="m 664.984,197.948 c 5.309,5.309 12.266,7.964 19.223,7.964 6.956,0 13.917,-2.655 19.227,-7.962 l 57.675,-57.673 c 10.619,-10.619 10.619,-27.831 0,-38.45 -10.616,-10.619 -27.831,-10.619 -38.45,0 L 664.984,159.5 c -10.619,10.616 -10.619,27.83 0,38.448 z"
   style="fill:#3d6deb;fill-rule:nonzero"
   id="path4" />
        <path
   d="m 509.632,135.733 c 2.676,2.204 5.821,3.929 9.343,5.004 14.361,4.383 29.557,-3.706 33.939,-18.068 l 23.762,-77.862 c 4.384,-14.362 -3.708,-29.559 -18.07,-33.941 -14.361,-4.383 -29.557,3.706 -33.939,18.068 l -23.76,77.863 c -3.309,10.839 0.488,22.153 8.725,28.936 z"
   style="fill:#3d6deb;fill-rule:nonzero"
   id="path5" />
        <path
   d="m 435.051,136.408 c 3.175,1.392 6.67,2.196 10.353,2.271 15.011,0.308 27.432,-11.613 27.738,-26.626 l 1.665,-81.39 C 475.115,15.65 463.191,3.23 448.179,2.924 433.168,2.616 420.747,14.537 420.441,29.55 l -1.663,81.391 c -0.233,11.33 6.501,21.183 16.274,25.467 z"
   style="fill:#3d6deb;fill-rule:nonzero"
   id="path6" />
        <path
   d="m 646.69,40.078 c -13.877,-5.747 -29.778,0.839 -35.526,14.712 l -31.156,75.211 c -5.745,13.872 0.841,29.777 14.712,35.525 3.405,1.411 6.928,2.077 10.395,2.077 10.669,0 20.792,-6.32 25.13,-16.789 L 661.401,75.603 C 667.149,61.728 660.564,45.825 646.69,40.078 Z"
   style="fill:#3d6deb;fill-rule:nonzero"
   id="path7" />
    </g>
    <g
   id="SVGCleanerId_0"
   transform="translate(-128.42375,-2.9181635)">
        <path
   d="m 554.772,365.471 -135.956,-0.072 v -99.704 c 0,-44.975 -36.591,-81.565 -81.565,-81.565 -44.975,0 -81.565,36.591 -81.565,81.565 v 104.304 c -8.616,-3.036 -17.777,-4.617 -27.178,-4.617 h -0.011 c -44.975,0 -81.565,36.591 -81.565,81.565 v 108.356 c 0,134.925 109.769,244.695 244.695,244.695 0.786,0 1.575,-0.034 2.359,-0.103 L 593.367,782.52 c 12.036,-1.05 21.936,-9.912 24.302,-21.758 l 54.376,-272.148 c 0.35,-1.755 0.528,-3.537 0.528,-5.327 0.002,-64.959 -52.848,-117.814 -117.8,-117.817 z m 13.569,364.648 -158.612,13.822 -19.245,1.677 C 286.07,744.996 201.309,659.86 201.309,555.303 V 446.947 c 0,-14.992 12.195,-27.189 27.192,-27.189 7.261,-0.002 14.086,2.827 19.22,7.961 5.134,5.134 7.964,11.964 7.964,19.228 V 555.7 c 0,15.016 12.173,27.189 27.189,27.189 15.016,0 27.189,-12.173 27.189,-27.189 V 265.691 c 0,-14.992 12.197,-27.189 27.189,-27.189 14.992,0 27.189,12.197 27.189,27.189 V 392.57 c 0,15.009 12.164,27.181 27.173,27.189 l 18.117,0.009 145.026,0.078 c 34.159,0.003 62.1,27.139 63.397,60.986 L 568.34,730.119 Z"
   style="fill:#e9a440;fill-rule:nonzero"
   id="path8" />
    </g>
    <g
   id="SVGCleanerId_1"
   transform="translate(-128.42375,-2.9181635)">
        <path
   d="M 554.757,419.848 409.731,419.77 v 324.174 l 158.612,-13.822 49.809,-249.287 c -1.295,-33.848 -29.236,-60.986 -63.395,-60.987 z"
   style="fill:#efc27b;fill-rule:nonzero"
   id="path9" />
    </g>
    <g
   id="g16"
   transform="translate(-128.42375,-2.9181635)">
        <path
   d="m 409.73,419.77 -18.117,-0.009 C 376.604,419.753 364.44,407.583 364.44,392.572 V 265.693 c 0,-14.992 -12.197,-27.189 -27.189,-27.189 -14.992,0 -27.189,12.197 -27.189,27.189 v 290.009 c 0,15.016 -12.173,27.189 -27.189,27.189 -15.016,0 -27.189,-12.173 -27.189,-27.189 V 446.949 c 0,-7.262 -2.83,-14.092 -7.964,-19.228 -5.134,-5.134 -11.961,-7.962 -19.22,-7.961 -14.995,0 -27.192,12.197 -27.192,27.189 v 108.356 c 0,104.558 84.761,189.693 189.175,190.315 l 19.245,-1.677 V 419.77 h 0.003 z"
   style="fill:#ecb45c;fill-rule:nonzero"
   id="path10" />
        <g
   id="g12">
            <path
   d="m 495.685,388.999 c -8.616,-3.036 163.131,58.4 163.131,58.4 V 284.695 c 0,-44.975 -36.591,-81.565 -81.565,-81.565 -44.975,0 -81.565,36.591 -81.565,81.565 v 104.304 z m 107.843,11.983 c 0,15.009 -53.465,5.732 -53.465,-9.283 V 284.69 c 0,-14.992 12.197,-27.189 27.189,-27.189 14.992,0 27.189,12.197 27.189,27.189 z"
   style="fill:#e9a440;fill-rule:nonzero"
   id="path11" />
            <path
   d="m 550.062,441.7 c 0,15.016 53.466,22.293 53.466,7.282 l 0.912,-164.291 c 0,-14.992 -12.197,-27.189 -27.189,-27.189 -14.992,0 -27.189,12.197 -27.189,27.189 z"
   style="fill:#efc27b;fill-rule:nonzero"
   id="path12" />
        </g>
        <g
   id="g14">
            <path
   d="m 382.685,361.999 c -8.616,-3.036 163.131,58.4 163.131,58.4 V 257.695 c 0,-44.975 -36.591,-81.565 -81.565,-81.565 -44.975,0 -81.565,36.591 -81.565,81.565 v 104.304 z m 107.843,11.983 c 0,15.009 -53.465,5.732 -53.465,-9.283 V 257.69 c 0,-14.992 12.197,-27.189 27.189,-27.189 14.992,0 27.189,12.197 27.189,27.189 z"
   style="fill:#e9a440;fill-rule:nonzero"
   id="path13" />
            <path
   d="m 437.062,414.7 c 0,15.016 53.466,22.293 53.466,7.282 l 0.912,-164.291 c 0,-14.992 -12.197,-27.189 -27.189,-27.189 -14.992,0 -27.189,12.197 -27.189,27.189 z"
   style="fill:#efc27b;fill-rule:nonzero"
   id="path14" />
        </g>
        <path
   d="m 390.484,745.619 19.247,-1.677 z"
   style="fill:#ecb45c;fill-rule:nonzero"
   id="path15" />
        <path
   d="m 409.73,419.77 -18.117,-0.011 z"
   style="fill:#ecb45c;fill-rule:nonzero"
   id="path16" />
    </g>
</svg>
