<?xml version="1.0" encoding="UTF-8" standalone="no"?>
<!-- Created with Inkscape (http://www.inkscape.org/) -->

<svg
   width="210mm"
   height="297mm"
   viewBox="0 0 210 297"
   version="1.1"
   id="svg1"
   xml:space="preserve"
   inkscape:version="1.4 (e7c3feb1, 2024-10-09)"
   sodipodi:docname="logo.svg"
   xmlns:inkscape="http://www.inkscape.org/namespaces/inkscape"
   xmlns:sodipodi="http://sodipodi.sourceforge.net/DTD/sodipodi-0.dtd"
   xmlns="http://www.w3.org/2000/svg"
   xmlns:svg="http://www.w3.org/2000/svg"><sodipodi:namedview
     id="namedview1"
     pagecolor="#ffffff"
     bordercolor="#000000"
     borderopacity="0.25"
     inkscape:showpageshadow="2"
     inkscape:pageopacity="0.0"
     inkscape:pagecheckerboard="0"
     inkscape:deskcolor="#d1d1d1"
     inkscape:document-units="mm"
     inkscape:zoom="0.78216891"
     inkscape:cx="559.98135"
     inkscape:cy="202.0024"
     inkscape:window-width="1864"
     inkscape:window-height="1027"
     inkscape:window-x="60"
     inkscape:window-y="25"
     inkscape:window-maximized="1"
     inkscape:current-layer="layer1" /><defs
     id="defs1" /><g
     inkscape:label="Layer 1"
     inkscape:groupmode="layer"
     id="layer1"><g
       id="g2"
       transform="translate(-15.751263,-61.903189)"
       style="display:inline"><path
         d="m 22.405427,83.259491 -0.141077,4.2323 q 0,0.151928 0,0.238745 0,0.217041 0.141077,0.217041 0.07596,0 0.434082,-0.293006 1.26969,-1.041797 2.799829,-1.041797 1.519287,0 2.680456,1.096058 1.454175,1.37821 1.454175,3.592028 0,3.157947 -2.354895,5.046204 -1.69292,1.367359 -3.971851,1.367359 -1.128613,0 -2.040185,-0.293006 -0.90072,-0.282153 -1.975073,-0.976684 -0.162781,-0.09767 -0.26045,-0.09767 -0.119372,0 -0.672827,0.206189 -0.282153,0.108521 -0.661975,0.108521 -0.672827,0 -0.672827,-0.434082 0,-0.141077 0.05426,-0.325562 0.217041,-0.705383 0.293006,-1.74718 0.07596,-1.041797 0.07596,-3.299024 V 87.86076 q 0,-1.117761 -0.08682,-1.399914 -0.08682,-0.282154 -0.488342,-0.444934 -0.564306,-0.238745 -0.781347,-0.466639 -0.217042,-0.238745 -0.217042,-0.596862 0,-0.727088 1.551844,-1.421619 0.84646,-0.36897 2.105298,-0.640271 1.26969,-0.282153 2.17041,-0.282153 0.575159,0 0.564307,0.651123 z m 0.933276,6.619751 q -0.586011,0 -0.84646,0.401526 -0.206189,0.303857 -0.206189,1.237134 0,2.550231 0.173633,3.4401 0.151928,0.824756 0.922424,0.824756 0.7922,0 1.204578,-0.672828 0.412378,-0.672827 0.412378,-1.953369 0,-1.888257 -0.694532,-2.756421 -0.401525,-0.499194 -0.965832,-0.520898 z m 13.413135,-3.27732 q 1.888257,0 3.201355,0.954981 0.694531,0.510046 0.965832,1.172021 0.282154,0.651123 0.282154,1.801441 l -0.02171,1.616955 q 0,1.682068 0.238746,2.181263 0.119372,0.238745 0.227893,0.303857 0.10852,0.06511 0.455786,0.119373 0.347265,0.05426 0.347265,0.455786 0,0.520898 -0.42323,1.085205 -0.412378,0.564307 -1.074353,0.944128 -0.813903,0.477491 -1.703772,0.477491 -1.139465,0 -1.80144,-0.781348 -0.227893,-0.282153 -0.42323,-0.282153 -0.217041,0 -0.575159,0.271301 -1.085205,0.7922 -2.463415,0.7922 -1.421619,0 -2.300635,-0.607715 -0.575159,-0.401526 -0.911572,-1.041797 -0.336414,-0.651123 -0.336414,-1.356507 0,-1.128613 0.911572,-1.996777 1.421619,-1.367358 4.254004,-1.37821 0.629419,0 0.7922,-0.119373 0.162781,-0.130225 0.162781,-0.586011 0,-1.150317 -0.238745,-1.660363 -0.238746,-0.520899 -0.781348,-0.520899 -0.325562,0 -0.586011,0.195337 -0.249597,0.195337 -0.629419,0.716235 -0.965832,1.378211 -2.018481,1.378211 -0.531751,0 -0.868164,-0.31471 -0.336414,-0.314709 -0.336414,-0.824756 0,-0.520898 0.412378,-1.041796 0.42323,-0.520899 1.139465,-0.911573 1.964222,-1.041797 4.102076,-1.041797 z M 36.02475,92.88526 q -0.47749,0 -0.835608,0.390674 -0.347265,0.390674 -0.347265,0.933276 0,0.520899 0.249597,0.84646 0.249597,0.31471 0.661975,0.31471 0.868164,0 0.868164,-1.465027 0,-0.596863 -0.130225,-0.803052 -0.119372,-0.206189 -0.466638,-0.217041 z m 12.197706,-6.207373 q 0.575159,0 0.694531,0.162781 0.130225,0.16278 0.227893,1.041796 0.05426,0.477491 0.336414,0.477491 0.217041,0 0.412378,-0.31471 0.868164,-1.356506 2.268079,-1.356506 0.987536,0 1.616955,0.640271 0.303858,0.314709 0.499195,0.813904 0.195336,0.488342 0.195336,0.944128 0,0.510046 -0.238745,1.052649 -0.238745,0.531751 -0.618567,0.879016 -0.694531,0.661975 -1.703772,0.661975 -0.553454,0 -0.933276,-0.195337 -0.36897,-0.195337 -0.976685,-0.792199 -0.227893,-0.227893 -0.42323,-0.227893 -0.303857,0 -0.401525,0.347265 -0.08682,0.336414 -0.08682,1.432471 0,1.63866 0.119373,2.235522 0.07596,0.325562 0.206189,0.455787 0.141076,0.119372 0.58601,0.249597 0.976685,0.293005 0.976685,1.020093 0,0.444934 -0.314709,0.781347 -0.31471,0.325562 -0.835608,0.434082 -1.041797,0.217041 -3.060279,0.217041 -1.920813,0 -2.919201,-0.336413 -0.889869,-0.303858 -0.889869,-1.052649 0,-0.564307 0.651123,-1.009241 0.31471,-0.206189 0.434082,-0.36897 0.119373,-0.173633 0.162781,-0.466638 0.173633,-0.987537 0.173633,-3.657141 0,-0.488342 -0.10852,-0.694531 -0.108521,-0.217041 -0.434083,-0.347266 -0.770495,-0.303857 -0.770495,-0.879016 0,-0.520899 0.53175,-0.889868 0.531751,-0.379822 1.779737,-0.748792 1.671216,-0.499194 2.843237,-0.510046 z m 12.772863,-0.06511 q 1.931665,0 3.407544,0.965833 1.399915,0.922424 1.399915,2.289783 0,0.944128 -0.651123,1.530139 -0.607715,0.553455 -1.465027,0.553455 -0.90072,0 -1.356507,-0.651124 -0.141076,-0.206188 -0.412378,-1.052648 -0.293005,-0.911573 -1.117761,-0.911573 -0.596863,0 -1.009241,0.520899 -0.401525,0.520898 -0.401525,1.280542 0,1.302246 0.933276,2.311487 0.759644,0.813903 1.909961,0.813903 0.542602,0 0.911572,-0.08682 0.36897,-0.09767 0.965833,-0.379822 0.151928,-0.07596 0.336413,-0.07596 0.36897,0 0.651123,0.347265 0.282154,0.347266 0.282154,0.813904 0,0.488343 -0.401526,1.030945 -0.401526,0.531751 -1.052649,0.933277 -1.410767,0.868164 -3.33158,0.868164 -2.235522,0 -3.80907,-1.302247 -2.018481,-1.649511 -2.018481,-4.199743 0,-2.452564 1.877405,-4.058667 1.790588,-1.540992 4.351672,-1.540992 z M 72.5419,87.361566 v 6.305042 q 0,0.748791 0.130224,1.096057 0.141077,0.347265 0.553455,0.640271 0.336413,0.238745 0.444934,0.412378 0.119372,0.16278 0.119372,0.42323 0,1.399914 -3.54862,1.399914 -1.909961,0 -3.027722,-0.303857 -0.379822,-0.108521 -0.618567,-0.379822 -0.227893,-0.271301 -0.227893,-0.618567 0,-0.293005 0.119372,-0.455786 0.119373,-0.162781 0.607715,-0.520898 0.336414,-0.249598 0.47749,-0.813904 0.141077,-0.564307 0.141077,-1.682068 0,-0.358118 -0.05426,-1.334802 -0.04341,-0.987537 -0.06511,-1.150318 -0.06511,-0.444934 -0.607714,-0.683679 -0.672828,-0.293005 -0.672828,-0.868164 0,-0.683679 0.879016,-1.020093 1.21543,-0.466638 2.604493,-0.7922 1.389062,-0.325561 2.148706,-0.325561 0.596863,0 0.596863,0.672827 z m -2.148706,-4.753198 q 0.944128,0 1.497583,0.358117 0.553454,0.347266 0.553454,0.944129 0,0.835608 -0.835608,1.32395 -1.32395,0.770496 -3.201355,0.770496 -0.7922,0 -1.258838,-0.303858 -0.629419,-0.390674 -0.629419,-1.085205 0,-0.933276 1.334803,-1.465027 1.356506,-0.542602 2.53938,-0.542602 z m 17.2005,8.008813 0.151929,3.819922 q 0.0217,0.434082 0.130224,0.640271 0.119373,0.206189 0.672828,0.7922 0.16278,0.173633 0.16278,0.488342 0,0.716236 -0.857312,0.998389 -0.857312,0.282153 -3.060278,0.282153 -1.497583,0 -2.11615,-0.260449 -0.640271,-0.271301 -0.640271,-0.879016 0,-0.217041 0.06511,-0.31471 0.06511,-0.10852 0.434082,-0.510046 0.434082,-0.455786 0.434082,-3.038574 0,-1.497583 -0.347265,-2.213819 -0.282154,-0.575158 -1.041797,-0.575158 -0.727087,0 -0.998389,0.466638 -0.271301,0.466638 -0.271301,1.69292 v 2.148706 q 0,0.640271 0.07596,0.879016 0.08682,0.238745 0.542603,0.922424 0.119372,0.195337 0.119372,0.444934 0,0.640271 -0.889868,0.944129 -0.889868,0.303857 -2.778125,0.303857 -3.01687,0 -3.01687,-1.247986 0,-0.260449 0.08682,-0.390673 0.09767,-0.141077 0.444935,-0.390674 0.282153,-0.206189 0.358117,-0.466638 0.07596,-0.271302 0.141077,-1.313099 0.07596,-1.237133 0.07596,-2.59364 0,-0.748791 -0.119372,-0.976684 -0.108521,-0.238745 -0.651123,-0.575159 -0.466639,-0.293005 -0.466639,-0.716235 0,-0.434082 0.379822,-0.705384 0.379822,-0.282153 1.562696,-0.705383 1.041796,-0.36897 2.007629,-0.618567 0.965833,-0.260449 1.32395,-0.260449 0.325562,0 0.542603,0.238745 0.227893,0.238745 0.227893,0.564307 0,0.03256 -0.01085,0.271301 -0.01085,0.08682 -0.01085,0.151929 0,0.520898 0.434082,0.520898 0.260449,0 0.553454,-0.412378 0.933277,-1.345654 2.713013,-1.345654 1.367359,0 2.344043,0.716235 0.683679,0.510047 0.954981,1.204578 0.271301,0.683679 0.336413,2.018481 z m 6.088004,-4.004407 q 0.542602,0 1.768884,0.238746 0.249597,0.04341 0.412378,0.04341 0.184485,0 0.716235,-0.195337 0.249597,-0.09767 0.42323,-0.09767 0.499194,0 1.009241,0.640271 0.412378,0.510047 0.672827,1.117762 0.260449,0.607715 0.260449,1.052649 0,0.434082 -0.303857,0.727087 -0.303858,0.282153 -0.759644,0.282153 -0.379822,0 -0.683679,-0.184485 -0.293005,-0.184484 -0.95498,-0.813903 -0.694532,-0.672827 -1.150318,-0.672827 -0.303857,0 -0.53175,0.227893 -0.217041,0.217041 -0.217041,0.520898 0,0.531751 1.020092,0.998389 1.833997,0.824756 2.810682,1.80144 0.824756,0.824756 0.824756,2.018482 0,1.508435 -1.323951,2.517675 -1.139465,0.879017 -2.788977,0.879017 -0.42323,0 -1.540991,-0.141077 -1.052649,-0.119373 -1.182874,-0.119373 -0.141076,0 -0.325561,0.03256 -0.31471,0.04341 -0.455786,0.04341 -0.510047,0 -0.803052,-0.260449 -0.444934,-0.401526 -0.824756,-1.258838 -0.379822,-0.868164 -0.379822,-1.486731 0,-0.998389 0.781348,-0.998389 0.303857,0 0.553455,0.206189 0.260449,0.195337 1.074353,1.063501 0.444934,0.47749 0.737939,0.661975 0.293005,0.173633 0.629419,0.173633 0.358118,0 0.575159,-0.184485 0.217041,-0.195337 0.217041,-0.510046 0,-0.488343 -0.835608,-0.889869 -1.74718,-0.857312 -2.528528,-1.768884 -0.770496,-0.911572 -0.770496,-2.105298 0,-1.291394 0.7922,-2.22467 1.128613,-1.334803 3.081983,-1.334803 z m 12.534112,-3.472656 -0.0977,3.396692 q -0.0108,0.510047 -0.0108,1.497583 0,1.096057 0.0326,1.291394 0.076,0.444934 0.45578,0.444934 0.32557,0 0.99839,-0.412378 0.67283,-0.42323 0.67283,-0.629419 0,-0.119372 -0.23874,-0.434082 -0.17364,-0.227893 -0.17364,-0.434082 0,-1.172021 2.88665,-1.172021 1.49758,0 2.36575,0.303857 0.34726,0.119373 0.57515,0.412378 0.2279,0.293006 0.2279,0.629419 0,0.488342 -0.46664,0.683679 -0.0977,0.04341 -0.62942,0.141077 -0.47749,0.08682 -1.23713,0.596863 -0.75965,0.499194 -0.75965,0.727087 0,0.151929 0.91158,1.432471 0.92242,1.26969 1.71462,2.213818 0.51005,0.618567 0.7922,0.868164 0.293,0.249598 0.80305,0.531751 0.78135,0.42323 0.78135,0.965832 0,0.575159 -0.4992,0.900721 -0.48834,0.325561 -1.34565,0.325561 h -3.51606 q -0.66198,-0.01085 -1.03095,-0.488342 l -1.80144,-2.311487 q -0.71624,-0.911572 -0.87902,-1.085205 -0.15193,-0.173633 -0.26045,-0.173633 -0.13022,0 -0.17363,0.195337 -0.0434,0.195337 -0.0434,0.73794 0,0.488342 0.10852,0.716235 0.10852,0.217041 0.4992,0.53175 0.28215,0.227893 0.28215,0.672828 0,0.759643 -0.80305,1.096057 -0.80305,0.336413 -2.6479,0.336413 -2.17041,0 -2.82153,-0.184485 -0.36897,-0.10852 -0.62942,-0.434082 -0.260452,-0.336413 -0.260452,-0.705383 0,-0.412378 0.455782,-0.716235 0.39068,-0.249597 0.4992,-0.379822 0.10852,-0.130225 0.17363,-0.412378 0.2496,-1.519287 0.23875,-4.688086 V 87.75224 q 0,-1.21543 -0.13023,-1.551843 -0.11937,-0.336414 -0.60771,-0.401526 -0.889871,-0.119373 -0.889871,-0.73794 0,-0.412378 0.390671,-0.737939 0.39068,-0.336414 1.28054,-0.661975 2.84324,-1.052649 4.2106,-1.052649 0.61857,0 0.59686,0.53175 z m 16.06104,4.221448 v 6.305042 q 0,0.748791 0.13022,1.096057 0.14108,0.347265 0.55346,0.640271 0.33641,0.238745 0.44493,0.412378 0.11937,0.16278 0.11937,0.42323 0,1.399914 -3.54862,1.399914 -1.90996,0 -3.02772,-0.303857 -0.37982,-0.108521 -0.61857,-0.379822 -0.22789,-0.271301 -0.22789,-0.618567 0,-0.293005 0.11937,-0.455786 0.11937,-0.162781 0.60772,-0.520898 0.33641,-0.249598 0.47749,-0.813904 0.14107,-0.564307 0.14107,-1.682068 0,-0.358118 -0.0543,-1.334802 -0.0434,-0.987537 -0.0651,-1.150318 -0.0651,-0.444934 -0.60771,-0.683679 -0.67283,-0.293005 -0.67283,-0.868164 0,-0.683679 0.87902,-1.020093 1.21543,-0.466638 2.60449,-0.7922 1.38906,-0.325561 2.1487,-0.325561 0.59687,0 0.59687,0.672827 z m -2.14871,-4.753198 q 0.94413,0 1.49758,0.358117 0.55346,0.347266 0.55346,0.944129 0,0.835608 -0.83561,1.32395 -1.32395,0.770496 -3.20135,0.770496 -0.7922,0 -1.25884,-0.303858 -0.62942,-0.390674 -0.62942,-1.085205 0,-0.933276 1.3348,-1.465027 1.35651,-0.542602 2.53938,-0.542602 z"
         id="text2"
         style="font-weight:bold;font-size:22.225px;font-family:'Cooper Black';-inkscape-font-specification:'Cooper Black,  Bold';stroke-width:0.264583"
         aria-label="barcinski" /><path
         style="display:inline;fill:#020202;stroke:none;stroke-width:0.186985"
         d="m 114.6454,62.540945 c -2.98254,0.405986 -4.62707,2.529811 -5.89951,5.074694 -0.87381,1.747622 -1.58923,3.57048 -2.15075,5.442039 -0.51842,1.727928 -0.9797,3.498053 -0.50091,5.29362 0.99712,3.739438 5.3867,5.482504 8.65012,6.787699 1.41839,0.567283 2.94729,1.101925 4.50205,0.915979 2.15922,-0.258241 3.49412,-1.605196 4.70689,-3.300573 1.95073,-2.727009 3.32356,-5.96696 3.9806,-9.251468 0.32595,-1.629385 0.51632,-3.300208 -0.0641,-4.897835 -1.29649,-3.568692 -5.9149,-4.618064 -9.1676,-5.498995 -1.30921,-0.354575 -2.6838,-0.752053 -4.05679,-0.56516 m 0.39578,3.703571 c 0.73654,-0.08809 1.50668,0.06868 2.22629,0.213467 1.42559,0.286829 2.75976,0.793681 4.05679,1.442278 1.10339,0.551761 2.13329,1.259249 2.53553,2.48587 0.33372,1.01765 0.21478,2.18496 0.007,3.215751 -0.42063,2.090524 -1.27949,4.112617 -2.46045,5.887297 -0.6779,1.018716 -1.53124,2.175059 -2.85294,2.316646 -0.72351,0.07751 -1.47073,-0.07694 -2.17682,-0.219002 -1.86205,-0.374637 -3.65588,-1.135559 -5.1452,-2.325235 -0.75999,-0.607083 -1.52515,-1.289955 -1.82909,-2.246064 -0.42816,-1.346849 0.005,-2.780757 0.45908,-4.056792 0.92994,-2.613382 1.95515,-6.328604 5.17943,-6.714216 m 0.93999,3.775262 c -2.10273,0.08613 -3.62402,3.243613 -3.14261,5.11577 0.40962,1.592955 2.40985,2.657087 3.98365,2.615698 0.67791,-0.01782 1.27126,-0.420801 1.73138,-0.884178 1.00697,-1.014119 1.92272,-2.933991 1.53759,-4.403067 -0.4311,-1.644452 -2.54959,-2.50814 -4.11001,-2.444223 z"
         id="path2" /></g></g></svg>
